G04 MADE WITH FRITZING*
G04 WWW.FRITZING.ORG*
G04 DOUBLE SIDED*
G04 HOLES PLATED*
G04 CONTOUR ON CENTER OF CONTOUR VECTOR*
%ASAXBY*%
%FSLAX23Y23*%
%MOIN*%
%OFA0B0*%
%SFA1.0B1.0*%
%ADD10C,0.074000*%
%ADD11C,0.039370*%
%ADD12C,0.075000*%
%ADD13C,0.078000*%
%ADD14C,0.082000*%
%ADD15C,0.060000*%
%ADD16C,0.065000*%
%ADD17C,0.080000*%
%ADD18C,0.070000*%
%ADD19R,0.075000X0.075000*%
%ADD20R,0.000150X0.000150*%
%ADD21R,0.082000X0.082000*%
%ADD22R,0.080000X0.079986*%
%ADD23R,0.080000X0.080000*%
%ADD24R,0.070000X0.069972*%
%ADD25C,0.024000*%
%ADD26R,0.001000X0.001000*%
%LNCOPPER1*%
G90*
G70*
G54D10*
X2066Y1292D03*
X2366Y1292D03*
X2066Y1292D03*
X2366Y1292D03*
G54D11*
X1747Y802D03*
X1805Y1478D03*
G54D12*
X2328Y999D03*
X2328Y699D03*
X2228Y999D03*
X2228Y699D03*
X2128Y999D03*
X2128Y699D03*
X2028Y999D03*
X2028Y699D03*
G54D11*
X3013Y1472D03*
G54D12*
X1262Y1937D03*
X1262Y1837D03*
G54D13*
X172Y2038D03*
X272Y2038D03*
X372Y2038D03*
X472Y2038D03*
X572Y2038D03*
X672Y2038D03*
X772Y2038D03*
X872Y2038D03*
X172Y1538D03*
X272Y1538D03*
X372Y1538D03*
X472Y1538D03*
X572Y1538D03*
X672Y1538D03*
X772Y1538D03*
X872Y1538D03*
G54D14*
X3393Y1469D03*
X3393Y1767D03*
G54D15*
X3675Y646D03*
X3675Y546D03*
X3675Y446D03*
X3675Y646D03*
X3675Y546D03*
X3675Y446D03*
G54D12*
X3172Y1038D03*
X3272Y1038D03*
X2733Y334D03*
X2733Y234D03*
X3272Y538D03*
X3272Y438D03*
G54D16*
X3172Y738D03*
X3272Y738D03*
X3172Y738D03*
X3272Y738D03*
X2511Y328D03*
X2511Y228D03*
X2511Y328D03*
X2511Y228D03*
X2366Y1642D03*
X2266Y1642D03*
X2366Y1642D03*
X2266Y1642D03*
X2972Y538D03*
X2972Y438D03*
X2972Y538D03*
X2972Y438D03*
G54D17*
X2501Y2011D03*
X2701Y2011D03*
X1812Y1991D03*
X2012Y1991D03*
X1612Y1991D03*
X3189Y2011D03*
X3389Y2011D03*
G54D18*
X1672Y1138D03*
X1572Y1138D03*
X1472Y1138D03*
X1372Y1138D03*
X1272Y1138D03*
X1172Y1138D03*
X1072Y1138D03*
X972Y1138D03*
X872Y1138D03*
X772Y1138D03*
X672Y1138D03*
X572Y1138D03*
X472Y1138D03*
X372Y1138D03*
X272Y1138D03*
X1672Y538D03*
X1572Y538D03*
X1472Y538D03*
X1372Y538D03*
X1272Y538D03*
X1172Y538D03*
X1072Y538D03*
X972Y538D03*
X872Y538D03*
X772Y538D03*
X672Y538D03*
X572Y538D03*
X472Y538D03*
X372Y538D03*
X272Y538D03*
G54D12*
X2114Y173D03*
X2114Y573D03*
X2222Y174D03*
X2222Y574D03*
X2956Y1635D03*
X2556Y1635D03*
G54D19*
X2328Y999D03*
G54D20*
X2027Y999D03*
G54D19*
X1262Y1937D03*
G54D21*
X3393Y1468D03*
G54D19*
X3172Y1038D03*
X2733Y334D03*
X3272Y538D03*
G54D22*
X2501Y2011D03*
G54D23*
X1612Y1991D03*
G54D22*
X3189Y2011D03*
G54D24*
X1672Y1138D03*
G54D25*
X2982Y548D02*
X3163Y728D01*
D02*
X1372Y556D02*
X1372Y698D01*
D02*
X1372Y698D02*
X1739Y800D01*
D02*
X1813Y1478D02*
X3005Y1472D01*
D02*
X2735Y345D02*
X2735Y345D01*
D02*
X2962Y529D02*
X2735Y345D01*
D02*
X2715Y333D02*
X2525Y328D01*
D02*
X1571Y624D02*
X1572Y556D01*
D02*
X1837Y695D02*
X1571Y624D01*
D02*
X2010Y699D02*
X1837Y695D01*
D02*
X2861Y784D02*
X2081Y784D01*
D02*
X2081Y784D02*
X2037Y714D01*
D02*
X2965Y616D02*
X2861Y784D01*
D02*
X2971Y552D02*
X2965Y616D01*
D02*
X1784Y1883D02*
X1807Y1971D01*
D02*
X978Y1228D02*
X1784Y1883D01*
D02*
X973Y1156D02*
X978Y1228D01*
D02*
X1903Y2095D02*
X1408Y2100D01*
D02*
X1258Y1935D02*
X1258Y1935D01*
D02*
X1408Y2100D02*
X1258Y1935D01*
D02*
X1998Y2005D02*
X1903Y2095D01*
D02*
X278Y2020D02*
X303Y1931D01*
D02*
X303Y1931D02*
X1245Y1937D01*
D02*
X3474Y538D02*
X2986Y538D01*
D02*
X3655Y545D02*
X3474Y538D01*
D02*
X3172Y752D02*
X3172Y1021D01*
D02*
X3189Y1846D02*
X3189Y1991D01*
D02*
X3170Y1179D02*
X3189Y1846D01*
D02*
X3172Y1056D02*
X3170Y1179D01*
D02*
X3273Y537D02*
X3273Y537D01*
D02*
X3655Y546D02*
X3273Y537D01*
D02*
X2973Y537D02*
X2973Y537D01*
D02*
X2973Y537D02*
X2973Y537D01*
D02*
X1982Y1870D02*
X2008Y1971D01*
D02*
X1376Y1321D02*
X1982Y1870D01*
D02*
X1373Y1156D02*
X1376Y1321D01*
G54D26*
X3640Y676D02*
X3711Y676D01*
X3636Y675D02*
X3715Y675D01*
X3634Y674D02*
X3717Y674D01*
X3632Y673D02*
X3719Y673D01*
X3630Y672D02*
X3721Y672D01*
X3629Y671D02*
X3723Y671D01*
X3627Y670D02*
X3724Y670D01*
X3626Y669D02*
X3725Y669D01*
X3625Y668D02*
X3726Y668D01*
X3624Y667D02*
X3727Y667D01*
X3623Y666D02*
X3670Y666D01*
X3681Y666D02*
X3728Y666D01*
X3622Y665D02*
X3667Y665D01*
X3684Y665D02*
X3729Y665D01*
X3622Y664D02*
X3665Y664D01*
X3686Y664D02*
X3730Y664D01*
X3621Y663D02*
X3664Y663D01*
X3688Y663D02*
X3730Y663D01*
X3620Y662D02*
X3662Y662D01*
X3689Y662D02*
X3731Y662D01*
X3620Y661D02*
X3661Y661D01*
X3690Y661D02*
X3731Y661D01*
X3619Y660D02*
X3660Y660D01*
X3691Y660D02*
X3732Y660D01*
X3619Y659D02*
X3660Y659D01*
X3692Y659D02*
X3732Y659D01*
X3618Y658D02*
X3659Y658D01*
X3693Y658D02*
X3733Y658D01*
X3618Y657D02*
X3658Y657D01*
X3693Y657D02*
X3733Y657D01*
X3618Y656D02*
X3658Y656D01*
X3694Y656D02*
X3734Y656D01*
X3617Y655D02*
X3657Y655D01*
X3694Y655D02*
X3734Y655D01*
X3617Y654D02*
X3657Y654D01*
X3695Y654D02*
X3734Y654D01*
X3617Y653D02*
X3656Y653D01*
X3695Y653D02*
X3734Y653D01*
X3617Y652D02*
X3656Y652D01*
X3695Y652D02*
X3735Y652D01*
X3616Y651D02*
X3656Y651D01*
X3696Y651D02*
X3735Y651D01*
X3616Y650D02*
X3655Y650D01*
X3696Y650D02*
X3735Y650D01*
X3616Y649D02*
X3655Y649D01*
X3696Y649D02*
X3735Y649D01*
X3616Y648D02*
X3655Y648D01*
X3696Y648D02*
X3735Y648D01*
X3616Y647D02*
X3655Y647D01*
X3696Y647D02*
X3735Y647D01*
X3616Y646D02*
X3655Y646D01*
X3696Y646D02*
X3735Y646D01*
X3616Y645D02*
X3655Y645D01*
X3696Y645D02*
X3735Y645D01*
X3616Y644D02*
X3655Y644D01*
X3696Y644D02*
X3735Y644D01*
X3616Y643D02*
X3655Y643D01*
X3696Y643D02*
X3735Y643D01*
X3617Y642D02*
X3656Y642D01*
X3696Y642D02*
X3735Y642D01*
X3617Y641D02*
X3656Y641D01*
X3695Y641D02*
X3735Y641D01*
X3617Y640D02*
X3656Y640D01*
X3695Y640D02*
X3734Y640D01*
X3617Y639D02*
X3657Y639D01*
X3695Y639D02*
X3734Y639D01*
X3617Y638D02*
X3657Y638D01*
X3694Y638D02*
X3734Y638D01*
X3618Y637D02*
X3658Y637D01*
X3694Y637D02*
X3734Y637D01*
X3618Y636D02*
X3658Y636D01*
X3693Y636D02*
X3733Y636D01*
X3618Y635D02*
X3659Y635D01*
X3692Y635D02*
X3733Y635D01*
X3619Y634D02*
X3660Y634D01*
X3691Y634D02*
X3732Y634D01*
X3619Y633D02*
X3661Y633D01*
X3691Y633D02*
X3732Y633D01*
X3620Y632D02*
X3662Y632D01*
X3690Y632D02*
X3731Y632D01*
X3621Y631D02*
X3663Y631D01*
X3688Y631D02*
X3731Y631D01*
X3621Y630D02*
X3664Y630D01*
X3687Y630D02*
X3730Y630D01*
X3622Y629D02*
X3666Y629D01*
X3685Y629D02*
X3729Y629D01*
X3623Y628D02*
X3668Y628D01*
X3683Y628D02*
X3729Y628D01*
X3623Y627D02*
X3672Y627D01*
X3679Y627D02*
X3728Y627D01*
X3624Y626D02*
X3727Y626D01*
X3625Y625D02*
X3726Y625D01*
X3626Y624D02*
X3725Y624D01*
X3628Y623D02*
X3724Y623D01*
X3629Y622D02*
X3722Y622D01*
X3631Y621D02*
X3721Y621D01*
X3632Y620D02*
X3719Y620D01*
X3634Y619D02*
X3717Y619D01*
X3637Y618D02*
X3714Y618D01*
X3642Y617D02*
X3709Y617D01*
X3640Y576D02*
X3711Y576D01*
X3636Y575D02*
X3715Y575D01*
X3634Y574D02*
X3717Y574D01*
X3632Y573D02*
X3719Y573D01*
X3630Y572D02*
X3721Y572D01*
X3629Y571D02*
X3723Y571D01*
X3627Y570D02*
X3724Y570D01*
X3626Y569D02*
X3725Y569D01*
X3625Y568D02*
X3726Y568D01*
X3624Y567D02*
X3727Y567D01*
X3623Y566D02*
X3670Y566D01*
X3681Y566D02*
X3728Y566D01*
X3622Y565D02*
X3667Y565D01*
X3684Y565D02*
X3729Y565D01*
X3622Y564D02*
X3665Y564D01*
X3686Y564D02*
X3730Y564D01*
X3621Y563D02*
X3664Y563D01*
X3688Y563D02*
X3730Y563D01*
X3620Y562D02*
X3662Y562D01*
X3689Y562D02*
X3731Y562D01*
X3620Y561D02*
X3661Y561D01*
X3690Y561D02*
X3731Y561D01*
X3619Y560D02*
X3660Y560D01*
X3691Y560D02*
X3732Y560D01*
X3619Y559D02*
X3659Y559D01*
X3692Y559D02*
X3732Y559D01*
X3618Y558D02*
X3659Y558D01*
X3693Y558D02*
X3733Y558D01*
X3618Y557D02*
X3658Y557D01*
X3693Y557D02*
X3733Y557D01*
X3618Y556D02*
X3658Y556D01*
X3694Y556D02*
X3734Y556D01*
X3617Y555D02*
X3657Y555D01*
X3694Y555D02*
X3734Y555D01*
X3617Y554D02*
X3657Y554D01*
X3695Y554D02*
X3734Y554D01*
X3617Y553D02*
X3656Y553D01*
X3695Y553D02*
X3734Y553D01*
X3617Y552D02*
X3656Y552D01*
X3695Y552D02*
X3735Y552D01*
X3616Y551D02*
X3656Y551D01*
X3696Y551D02*
X3735Y551D01*
X3616Y550D02*
X3655Y550D01*
X3696Y550D02*
X3735Y550D01*
X3616Y549D02*
X3655Y549D01*
X3696Y549D02*
X3735Y549D01*
X3616Y548D02*
X3655Y548D01*
X3696Y548D02*
X3735Y548D01*
X3616Y547D02*
X3655Y547D01*
X3696Y547D02*
X3735Y547D01*
X3616Y546D02*
X3655Y546D01*
X3696Y546D02*
X3735Y546D01*
X3616Y545D02*
X3655Y545D01*
X3696Y545D02*
X3735Y545D01*
X3616Y544D02*
X3655Y544D01*
X3696Y544D02*
X3735Y544D01*
X3616Y543D02*
X3655Y543D01*
X3696Y543D02*
X3735Y543D01*
X3617Y542D02*
X3656Y542D01*
X3696Y542D02*
X3735Y542D01*
X3617Y541D02*
X3656Y541D01*
X3695Y541D02*
X3735Y541D01*
X3617Y540D02*
X3656Y540D01*
X3695Y540D02*
X3734Y540D01*
X3617Y539D02*
X3657Y539D01*
X3695Y539D02*
X3734Y539D01*
X3617Y538D02*
X3657Y538D01*
X3694Y538D02*
X3734Y538D01*
X3618Y537D02*
X3658Y537D01*
X3694Y537D02*
X3734Y537D01*
X3618Y536D02*
X3658Y536D01*
X3693Y536D02*
X3733Y536D01*
X3618Y535D02*
X3659Y535D01*
X3692Y535D02*
X3733Y535D01*
X3619Y534D02*
X3660Y534D01*
X3691Y534D02*
X3732Y534D01*
X3619Y533D02*
X3661Y533D01*
X3691Y533D02*
X3732Y533D01*
X3620Y532D02*
X3662Y532D01*
X3690Y532D02*
X3731Y532D01*
X3621Y531D02*
X3663Y531D01*
X3688Y531D02*
X3731Y531D01*
X3621Y530D02*
X3664Y530D01*
X3687Y530D02*
X3730Y530D01*
X3622Y529D02*
X3666Y529D01*
X3685Y529D02*
X3729Y529D01*
X3623Y528D02*
X3668Y528D01*
X3683Y528D02*
X3729Y528D01*
X3623Y527D02*
X3672Y527D01*
X3679Y527D02*
X3728Y527D01*
X3624Y526D02*
X3727Y526D01*
X3625Y525D02*
X3726Y525D01*
X3626Y524D02*
X3725Y524D01*
X3628Y523D02*
X3724Y523D01*
X3629Y522D02*
X3722Y522D01*
X3631Y521D02*
X3721Y521D01*
X3632Y520D02*
X3719Y520D01*
X3635Y519D02*
X3717Y519D01*
X3637Y518D02*
X3714Y518D01*
X3642Y517D02*
X3709Y517D01*
X3640Y476D02*
X3711Y476D01*
X3636Y475D02*
X3715Y475D01*
X3634Y474D02*
X3717Y474D01*
X3632Y473D02*
X3719Y473D01*
X3630Y472D02*
X3721Y472D01*
X3629Y471D02*
X3723Y471D01*
X3627Y470D02*
X3724Y470D01*
X3626Y469D02*
X3725Y469D01*
X3625Y468D02*
X3726Y468D01*
X3624Y467D02*
X3727Y467D01*
X3623Y466D02*
X3670Y466D01*
X3681Y466D02*
X3728Y466D01*
X3622Y465D02*
X3667Y465D01*
X3684Y465D02*
X3729Y465D01*
X3622Y464D02*
X3665Y464D01*
X3686Y464D02*
X3730Y464D01*
X3621Y463D02*
X3664Y463D01*
X3688Y463D02*
X3730Y463D01*
X3620Y462D02*
X3662Y462D01*
X3689Y462D02*
X3731Y462D01*
X3620Y461D02*
X3661Y461D01*
X3690Y461D02*
X3731Y461D01*
X3619Y460D02*
X3660Y460D01*
X3691Y460D02*
X3732Y460D01*
X3619Y459D02*
X3659Y459D01*
X3692Y459D02*
X3732Y459D01*
X3618Y458D02*
X3659Y458D01*
X3693Y458D02*
X3733Y458D01*
X3618Y457D02*
X3658Y457D01*
X3693Y457D02*
X3733Y457D01*
X3618Y456D02*
X3658Y456D01*
X3694Y456D02*
X3734Y456D01*
X3617Y455D02*
X3657Y455D01*
X3694Y455D02*
X3734Y455D01*
X3617Y454D02*
X3657Y454D01*
X3695Y454D02*
X3734Y454D01*
X3617Y453D02*
X3656Y453D01*
X3695Y453D02*
X3734Y453D01*
X3617Y452D02*
X3656Y452D01*
X3695Y452D02*
X3735Y452D01*
X3616Y451D02*
X3656Y451D01*
X3696Y451D02*
X3735Y451D01*
X3616Y450D02*
X3655Y450D01*
X3696Y450D02*
X3735Y450D01*
X3616Y449D02*
X3655Y449D01*
X3696Y449D02*
X3735Y449D01*
X3616Y448D02*
X3655Y448D01*
X3696Y448D02*
X3735Y448D01*
X3616Y447D02*
X3655Y447D01*
X3696Y447D02*
X3735Y447D01*
X3616Y446D02*
X3655Y446D01*
X3696Y446D02*
X3735Y446D01*
X3616Y445D02*
X3655Y445D01*
X3696Y445D02*
X3735Y445D01*
X3616Y444D02*
X3655Y444D01*
X3696Y444D02*
X3735Y444D01*
X3616Y443D02*
X3655Y443D01*
X3696Y443D02*
X3735Y443D01*
X3617Y442D02*
X3656Y442D01*
X3696Y442D02*
X3735Y442D01*
X3617Y441D02*
X3656Y441D01*
X3695Y441D02*
X3735Y441D01*
X3617Y440D02*
X3656Y440D01*
X3695Y440D02*
X3734Y440D01*
X3617Y439D02*
X3657Y439D01*
X3695Y439D02*
X3734Y439D01*
X3617Y438D02*
X3657Y438D01*
X3694Y438D02*
X3734Y438D01*
X3618Y437D02*
X3658Y437D01*
X3694Y437D02*
X3733Y437D01*
X3618Y436D02*
X3658Y436D01*
X3693Y436D02*
X3733Y436D01*
X3618Y435D02*
X3659Y435D01*
X3692Y435D02*
X3733Y435D01*
X3619Y434D02*
X3660Y434D01*
X3691Y434D02*
X3732Y434D01*
X3619Y433D02*
X3661Y433D01*
X3691Y433D02*
X3732Y433D01*
X3620Y432D02*
X3662Y432D01*
X3690Y432D02*
X3731Y432D01*
X3621Y431D02*
X3663Y431D01*
X3688Y431D02*
X3731Y431D01*
X3621Y430D02*
X3664Y430D01*
X3687Y430D02*
X3730Y430D01*
X3622Y429D02*
X3666Y429D01*
X3685Y429D02*
X3729Y429D01*
X3623Y428D02*
X3668Y428D01*
X3683Y428D02*
X3729Y428D01*
X3624Y427D02*
X3672Y427D01*
X3679Y427D02*
X3728Y427D01*
X3624Y426D02*
X3727Y426D01*
X3625Y425D02*
X3726Y425D01*
X3627Y424D02*
X3725Y424D01*
X3628Y423D02*
X3723Y423D01*
X3629Y422D02*
X3722Y422D01*
X3631Y421D02*
X3721Y421D01*
X3632Y420D02*
X3719Y420D01*
X3635Y419D02*
X3717Y419D01*
X3637Y418D02*
X3714Y418D01*
X3642Y417D02*
X3709Y417D01*
D02*
G04 End of Copper1*
M02*