G04 MADE WITH FRITZING*
G04 WWW.FRITZING.ORG*
G04 DOUBLE SIDED*
G04 HOLES PLATED*
G04 CONTOUR ON CENTER OF CONTOUR VECTOR*
%ASAXBY*%
%FSLAX23Y23*%
%MOIN*%
%OFA0B0*%
%SFA1.0B1.0*%
%ADD10C,0.084000*%
%ADD11C,0.049370*%
%ADD12C,0.085000*%
%ADD13C,0.088000*%
%ADD14C,0.096614*%
%ADD15C,0.092000*%
%ADD16C,0.070000*%
%ADD17C,0.075000*%
%ADD18C,0.090000*%
%ADD19C,0.080000*%
%ADD20R,0.085000X0.085000*%
%ADD21R,0.010150X0.010150*%
%ADD22R,0.092000X0.092000*%
%ADD23R,0.090000X0.089986*%
%ADD24R,0.090000X0.090000*%
%ADD25R,0.080000X0.079972*%
%ADD26R,0.001000X0.001000*%
%LNMASK0*%
G90*
G70*
G54D10*
X2066Y1292D03*
X2366Y1292D03*
G54D11*
X1747Y802D03*
X1805Y1478D03*
G54D12*
X2328Y999D03*
X2328Y699D03*
X2228Y999D03*
X2228Y699D03*
X2128Y999D03*
X2128Y699D03*
X2028Y999D03*
X2028Y699D03*
G54D11*
X3013Y1472D03*
G54D12*
X1262Y1937D03*
X1262Y1837D03*
G54D13*
X172Y2038D03*
X272Y2038D03*
X372Y2038D03*
X472Y2038D03*
X572Y2038D03*
X672Y2038D03*
X772Y2038D03*
X872Y2038D03*
X172Y1538D03*
X272Y1538D03*
X372Y1538D03*
X472Y1538D03*
X572Y1538D03*
X672Y1538D03*
X772Y1538D03*
X872Y1538D03*
G54D14*
X3687Y173D03*
X3687Y1991D03*
X261Y173D03*
G54D15*
X3393Y1469D03*
X3393Y1767D03*
G54D16*
X3675Y646D03*
X3675Y546D03*
X3675Y446D03*
G54D12*
X3172Y1038D03*
X3272Y1038D03*
X2733Y334D03*
X2733Y234D03*
X3272Y538D03*
X3272Y438D03*
G54D17*
X3172Y738D03*
X3272Y738D03*
X2511Y328D03*
X2511Y228D03*
X2366Y1642D03*
X2266Y1642D03*
X2972Y538D03*
X2972Y438D03*
G54D18*
X2501Y2011D03*
X2701Y2011D03*
X1812Y1991D03*
X2012Y1991D03*
X1612Y1991D03*
X3189Y2011D03*
X3389Y2011D03*
G54D19*
X1672Y1138D03*
X1572Y1138D03*
X1472Y1138D03*
X1372Y1138D03*
X1272Y1138D03*
X1172Y1138D03*
X1072Y1138D03*
X972Y1138D03*
X872Y1138D03*
X772Y1138D03*
X672Y1138D03*
X572Y1138D03*
X472Y1138D03*
X372Y1138D03*
X272Y1138D03*
X1672Y538D03*
X1572Y538D03*
X1472Y538D03*
X1372Y538D03*
X1272Y538D03*
X1172Y538D03*
X1072Y538D03*
X972Y538D03*
X872Y538D03*
X772Y538D03*
X672Y538D03*
X572Y538D03*
X472Y538D03*
X372Y538D03*
X272Y538D03*
G54D12*
X2114Y173D03*
X2114Y573D03*
X2222Y174D03*
X2222Y574D03*
X2956Y1635D03*
X2556Y1635D03*
G54D20*
X2328Y999D03*
G54D21*
X2027Y999D03*
G54D20*
X1262Y1937D03*
G54D22*
X3393Y1468D03*
G54D20*
X3172Y1038D03*
X2733Y334D03*
X3272Y538D03*
G54D23*
X2501Y2011D03*
G54D24*
X1612Y1991D03*
G54D23*
X3189Y2011D03*
G54D25*
X1672Y1138D03*
G54D26*
X3640Y681D02*
X3711Y681D01*
X3636Y680D02*
X3715Y680D01*
X3633Y679D02*
X3718Y679D01*
X3631Y678D02*
X3720Y678D01*
X3629Y677D02*
X3722Y677D01*
X3627Y676D02*
X3724Y676D01*
X3626Y675D02*
X3726Y675D01*
X3624Y674D02*
X3727Y674D01*
X3623Y673D02*
X3728Y673D01*
X3622Y672D02*
X3729Y672D01*
X3621Y671D02*
X3730Y671D01*
X3620Y670D02*
X3731Y670D01*
X3619Y669D02*
X3732Y669D01*
X3618Y668D02*
X3733Y668D01*
X3618Y667D02*
X3734Y667D01*
X3617Y666D02*
X3734Y666D01*
X3616Y665D02*
X3735Y665D01*
X3616Y664D02*
X3735Y664D01*
X3615Y663D02*
X3736Y663D01*
X3615Y662D02*
X3736Y662D01*
X3614Y661D02*
X3671Y661D01*
X3681Y661D02*
X3737Y661D01*
X3614Y660D02*
X3668Y660D01*
X3683Y660D02*
X3737Y660D01*
X3614Y659D02*
X3667Y659D01*
X3685Y659D02*
X3738Y659D01*
X3613Y658D02*
X3665Y658D01*
X3686Y658D02*
X3738Y658D01*
X3613Y657D02*
X3664Y657D01*
X3687Y657D02*
X3738Y657D01*
X3613Y656D02*
X3663Y656D01*
X3688Y656D02*
X3739Y656D01*
X3612Y655D02*
X3663Y655D01*
X3689Y655D02*
X3739Y655D01*
X3612Y654D02*
X3662Y654D01*
X3689Y654D02*
X3739Y654D01*
X3612Y653D02*
X3661Y653D01*
X3690Y653D02*
X3739Y653D01*
X3612Y652D02*
X3661Y652D01*
X3690Y652D02*
X3740Y652D01*
X3611Y651D02*
X3661Y651D01*
X3690Y651D02*
X3740Y651D01*
X3611Y650D02*
X3660Y650D01*
X3691Y650D02*
X3740Y650D01*
X3611Y649D02*
X3660Y649D01*
X3691Y649D02*
X3740Y649D01*
X3611Y648D02*
X3660Y648D01*
X3691Y648D02*
X3740Y648D01*
X3611Y647D02*
X3660Y647D01*
X3691Y647D02*
X3740Y647D01*
X3611Y646D02*
X3660Y646D01*
X3691Y646D02*
X3740Y646D01*
X3611Y645D02*
X3660Y645D01*
X3691Y645D02*
X3740Y645D01*
X3611Y644D02*
X3660Y644D01*
X3691Y644D02*
X3740Y644D01*
X3611Y643D02*
X3661Y643D01*
X3691Y643D02*
X3740Y643D01*
X3611Y642D02*
X3661Y642D01*
X3690Y642D02*
X3740Y642D01*
X3612Y641D02*
X3661Y641D01*
X3690Y641D02*
X3740Y641D01*
X3612Y640D02*
X3662Y640D01*
X3690Y640D02*
X3739Y640D01*
X3612Y639D02*
X3662Y639D01*
X3689Y639D02*
X3739Y639D01*
X3612Y638D02*
X3663Y638D01*
X3688Y638D02*
X3739Y638D01*
X3613Y637D02*
X3664Y637D01*
X3688Y637D02*
X3739Y637D01*
X3613Y636D02*
X3665Y636D01*
X3687Y636D02*
X3738Y636D01*
X3613Y635D02*
X3666Y635D01*
X3685Y635D02*
X3738Y635D01*
X3614Y634D02*
X3667Y634D01*
X3684Y634D02*
X3738Y634D01*
X3614Y633D02*
X3669Y633D01*
X3682Y633D02*
X3737Y633D01*
X3614Y632D02*
X3672Y632D01*
X3679Y632D02*
X3737Y632D01*
X3615Y631D02*
X3736Y631D01*
X3615Y630D02*
X3736Y630D01*
X3616Y629D02*
X3735Y629D01*
X3617Y628D02*
X3735Y628D01*
X3617Y627D02*
X3734Y627D01*
X3618Y626D02*
X3733Y626D01*
X3619Y625D02*
X3733Y625D01*
X3619Y624D02*
X3732Y624D01*
X3620Y623D02*
X3731Y623D01*
X3621Y622D02*
X3730Y622D01*
X3622Y621D02*
X3729Y621D01*
X3623Y620D02*
X3728Y620D01*
X3625Y619D02*
X3726Y619D01*
X3626Y618D02*
X3725Y618D01*
X3628Y617D02*
X3724Y617D01*
X3629Y616D02*
X3722Y616D01*
X3631Y615D02*
X3720Y615D01*
X3634Y614D02*
X3717Y614D01*
X3637Y613D02*
X3714Y613D01*
X3642Y612D02*
X3710Y612D01*
X3640Y581D02*
X3712Y581D01*
X3636Y580D02*
X3715Y580D01*
X3633Y579D02*
X3718Y579D01*
X3631Y578D02*
X3720Y578D01*
X3629Y577D02*
X3722Y577D01*
X3627Y576D02*
X3724Y576D01*
X3626Y575D02*
X3726Y575D01*
X3624Y574D02*
X3727Y574D01*
X3623Y573D02*
X3728Y573D01*
X3622Y572D02*
X3729Y572D01*
X3621Y571D02*
X3730Y571D01*
X3620Y570D02*
X3731Y570D01*
X3619Y569D02*
X3732Y569D01*
X3618Y568D02*
X3733Y568D01*
X3618Y567D02*
X3734Y567D01*
X3617Y566D02*
X3734Y566D01*
X3616Y565D02*
X3735Y565D01*
X3616Y564D02*
X3735Y564D01*
X3615Y563D02*
X3736Y563D01*
X3615Y562D02*
X3736Y562D01*
X3614Y561D02*
X3671Y561D01*
X3681Y561D02*
X3737Y561D01*
X3614Y560D02*
X3668Y560D01*
X3683Y560D02*
X3737Y560D01*
X3613Y559D02*
X3667Y559D01*
X3685Y559D02*
X3738Y559D01*
X3613Y558D02*
X3665Y558D01*
X3686Y558D02*
X3738Y558D01*
X3613Y557D02*
X3664Y557D01*
X3687Y557D02*
X3738Y557D01*
X3612Y556D02*
X3663Y556D01*
X3688Y556D02*
X3739Y556D01*
X3612Y555D02*
X3663Y555D01*
X3689Y555D02*
X3739Y555D01*
X3612Y554D02*
X3662Y554D01*
X3689Y554D02*
X3739Y554D01*
X3612Y553D02*
X3661Y553D01*
X3690Y553D02*
X3739Y553D01*
X3612Y552D02*
X3661Y552D01*
X3690Y552D02*
X3740Y552D01*
X3611Y551D02*
X3661Y551D01*
X3690Y551D02*
X3740Y551D01*
X3611Y550D02*
X3660Y550D01*
X3691Y550D02*
X3740Y550D01*
X3611Y549D02*
X3660Y549D01*
X3691Y549D02*
X3740Y549D01*
X3611Y548D02*
X3660Y548D01*
X3691Y548D02*
X3740Y548D01*
X3611Y547D02*
X3660Y547D01*
X3691Y547D02*
X3740Y547D01*
X3611Y546D02*
X3660Y546D01*
X3691Y546D02*
X3740Y546D01*
X3611Y545D02*
X3660Y545D01*
X3691Y545D02*
X3740Y545D01*
X3611Y544D02*
X3660Y544D01*
X3691Y544D02*
X3740Y544D01*
X3611Y543D02*
X3661Y543D01*
X3691Y543D02*
X3740Y543D01*
X3611Y542D02*
X3661Y542D01*
X3690Y542D02*
X3740Y542D01*
X3612Y541D02*
X3661Y541D01*
X3690Y541D02*
X3740Y541D01*
X3612Y540D02*
X3662Y540D01*
X3690Y540D02*
X3739Y540D01*
X3612Y539D02*
X3662Y539D01*
X3689Y539D02*
X3739Y539D01*
X3612Y538D02*
X3663Y538D01*
X3688Y538D02*
X3739Y538D01*
X3613Y537D02*
X3664Y537D01*
X3688Y537D02*
X3739Y537D01*
X3613Y536D02*
X3665Y536D01*
X3687Y536D02*
X3738Y536D01*
X3613Y535D02*
X3666Y535D01*
X3685Y535D02*
X3738Y535D01*
X3614Y534D02*
X3667Y534D01*
X3684Y534D02*
X3738Y534D01*
X3614Y533D02*
X3669Y533D01*
X3682Y533D02*
X3737Y533D01*
X3614Y532D02*
X3672Y532D01*
X3679Y532D02*
X3737Y532D01*
X3615Y531D02*
X3736Y531D01*
X3615Y530D02*
X3736Y530D01*
X3616Y529D02*
X3735Y529D01*
X3617Y528D02*
X3735Y528D01*
X3617Y527D02*
X3734Y527D01*
X3618Y526D02*
X3733Y526D01*
X3619Y525D02*
X3733Y525D01*
X3619Y524D02*
X3732Y524D01*
X3620Y523D02*
X3731Y523D01*
X3621Y522D02*
X3730Y522D01*
X3622Y521D02*
X3729Y521D01*
X3624Y520D02*
X3728Y520D01*
X3625Y519D02*
X3726Y519D01*
X3626Y518D02*
X3725Y518D01*
X3628Y517D02*
X3723Y517D01*
X3629Y516D02*
X3722Y516D01*
X3631Y515D02*
X3720Y515D01*
X3634Y514D02*
X3717Y514D01*
X3637Y513D02*
X3714Y513D01*
X3642Y512D02*
X3710Y512D01*
X3640Y481D02*
X3712Y481D01*
X3636Y480D02*
X3716Y480D01*
X3633Y479D02*
X3718Y479D01*
X3631Y478D02*
X3720Y478D01*
X3629Y477D02*
X3722Y477D01*
X3627Y476D02*
X3724Y476D01*
X3626Y475D02*
X3726Y475D01*
X3624Y474D02*
X3727Y474D01*
X3623Y473D02*
X3728Y473D01*
X3622Y472D02*
X3729Y472D01*
X3621Y471D02*
X3730Y471D01*
X3620Y470D02*
X3731Y470D01*
X3619Y469D02*
X3732Y469D01*
X3618Y468D02*
X3733Y468D01*
X3618Y467D02*
X3734Y467D01*
X3617Y466D02*
X3734Y466D01*
X3616Y465D02*
X3735Y465D01*
X3616Y464D02*
X3735Y464D01*
X3615Y463D02*
X3736Y463D01*
X3615Y462D02*
X3736Y462D01*
X3614Y461D02*
X3671Y461D01*
X3681Y461D02*
X3737Y461D01*
X3614Y460D02*
X3668Y460D01*
X3683Y460D02*
X3737Y460D01*
X3613Y459D02*
X3667Y459D01*
X3685Y459D02*
X3738Y459D01*
X3613Y458D02*
X3665Y458D01*
X3686Y458D02*
X3738Y458D01*
X3613Y457D02*
X3664Y457D01*
X3687Y457D02*
X3738Y457D01*
X3612Y456D02*
X3663Y456D01*
X3688Y456D02*
X3739Y456D01*
X3612Y455D02*
X3663Y455D01*
X3689Y455D02*
X3739Y455D01*
X3612Y454D02*
X3662Y454D01*
X3689Y454D02*
X3739Y454D01*
X3612Y453D02*
X3661Y453D01*
X3690Y453D02*
X3739Y453D01*
X3612Y452D02*
X3661Y452D01*
X3690Y452D02*
X3740Y452D01*
X3611Y451D02*
X3661Y451D01*
X3690Y451D02*
X3740Y451D01*
X3611Y450D02*
X3660Y450D01*
X3691Y450D02*
X3740Y450D01*
X3611Y449D02*
X3660Y449D01*
X3691Y449D02*
X3740Y449D01*
X3611Y448D02*
X3660Y448D01*
X3691Y448D02*
X3740Y448D01*
X3611Y447D02*
X3660Y447D01*
X3691Y447D02*
X3740Y447D01*
X3611Y446D02*
X3660Y446D01*
X3691Y446D02*
X3740Y446D01*
X3611Y445D02*
X3660Y445D01*
X3691Y445D02*
X3740Y445D01*
X3611Y444D02*
X3660Y444D01*
X3691Y444D02*
X3740Y444D01*
X3611Y443D02*
X3661Y443D01*
X3691Y443D02*
X3740Y443D01*
X3611Y442D02*
X3661Y442D01*
X3690Y442D02*
X3740Y442D01*
X3612Y441D02*
X3661Y441D01*
X3690Y441D02*
X3740Y441D01*
X3612Y440D02*
X3662Y440D01*
X3690Y440D02*
X3739Y440D01*
X3612Y439D02*
X3662Y439D01*
X3689Y439D02*
X3739Y439D01*
X3612Y438D02*
X3663Y438D01*
X3688Y438D02*
X3739Y438D01*
X3613Y437D02*
X3664Y437D01*
X3688Y437D02*
X3739Y437D01*
X3613Y436D02*
X3665Y436D01*
X3687Y436D02*
X3738Y436D01*
X3613Y435D02*
X3666Y435D01*
X3685Y435D02*
X3738Y435D01*
X3614Y434D02*
X3667Y434D01*
X3684Y434D02*
X3738Y434D01*
X3614Y433D02*
X3669Y433D01*
X3682Y433D02*
X3737Y433D01*
X3614Y432D02*
X3672Y432D01*
X3679Y432D02*
X3737Y432D01*
X3615Y431D02*
X3736Y431D01*
X3615Y430D02*
X3736Y430D01*
X3616Y429D02*
X3735Y429D01*
X3617Y428D02*
X3735Y428D01*
X3617Y427D02*
X3734Y427D01*
X3618Y426D02*
X3733Y426D01*
X3619Y425D02*
X3733Y425D01*
X3620Y424D02*
X3732Y424D01*
X3620Y423D02*
X3731Y423D01*
X3621Y422D02*
X3730Y422D01*
X3622Y421D02*
X3729Y421D01*
X3624Y420D02*
X3728Y420D01*
X3625Y419D02*
X3726Y419D01*
X3626Y418D02*
X3725Y418D01*
X3628Y417D02*
X3723Y417D01*
X3629Y416D02*
X3722Y416D01*
X3632Y415D02*
X3720Y415D01*
X3634Y414D02*
X3717Y414D01*
X3637Y413D02*
X3714Y413D01*
X3642Y412D02*
X3709Y412D01*
D02*
G04 End of Mask0*
M02*