; NON-PLATED HOLES START AT T1
; THROUGH (PLATED) HOLES START AT T100
M48
INCH
T1C0.086614
T100C0.036000
T101C0.027559
T102C0.038000
T103C0.040000
T104C0.035000
T105C0.035433
T106C0.015748
T107C0.042000
%
T1
X036866Y019914
X036866Y001734
X002614Y001734
T100
X013722Y005381
X003722Y011381
X004722Y005381
X014722Y011381
X003722Y005381
X014722Y005381
X004722Y011381
X013722Y011381
X006722Y005381
X009722Y011381
X016722Y011381
X011722Y005381
X010722Y011381
X012722Y005381
X002722Y011381
X008722Y005381
X005722Y005381
X007722Y005381
X015722Y011381
X015722Y005381
X005722Y011381
X007722Y011381
X002722Y005381
X012722Y011381
X008722Y011381
X011722Y011381
X010722Y005381
X016722Y005381
X006722Y011381
X009722Y005381
T101
X022663Y016424
X025108Y003279
X032722Y007381
X029722Y005381
X031722Y007381
X025108Y002279
X029722Y004381
X023663Y016424
T102
X001722Y020381
X006722Y015381
X005722Y015381
X007722Y015381
X008722Y015381
X002722Y020381
X002722Y015381
X008722Y020381
X007722Y020381
X005722Y020381
X006722Y020381
X001722Y015381
X004722Y015381
X003722Y020381
X003722Y015381
X004722Y020381
T103
X027013Y020112
X018123Y019907
X031892Y020112
X036751Y005462
X025013Y020112
X016123Y019907
X036751Y004462
X020123Y019907
X036751Y006462
X033892Y020112
T104
X020277Y006992
X022277Y009992
X021277Y006992
X012623Y018370
X022224Y001740
X023277Y009992
X025563Y016346
X023277Y006992
X027328Y002339
X022277Y006992
X021277Y009992
X020277Y009992
X032722Y005381
X029563Y016346
X021144Y001726
X031722Y010381
X032722Y010381
X021144Y005726
X012623Y019370
X027328Y003339
X032722Y004381
X022224Y005740
T105
X023660Y012920
X020660Y012920
T106
X018052Y014778
X030127Y014720
X017466Y008018
T107
X033925Y014691
X033925Y017671
T00
M30
